# xmcd CD database file
#
# Track frame offsets:
#	150
#	28980
#	42360
#	68100
#	81135
#	101790
#	119505
#	145245
#	166575
#	182130
#	201360
#	216795
#	232035
#	251820
#	271560
#	291000
#
# Disc length: 4107 seconds
#
# Revision: 0
# Processed by: cddbd v1.5.1PL0 Copyright (c) Steve Scherf et al.
# Submitted via: CDex 1.51
#
DISCID=ef100910
DTITLE=Roy Lee Johnson - When A Guitar Plays The Blues
DYEAR=1998
DGENRE=Blues
TTITLE0=When A Guitar Plays The Blues
TTITLE1=Red Hot
TTITLE2=Living In Reverse
TTITLE3=Want To Be Touched By You
TTITLE4=I Thought About You
TTITLE5=Real Thang
TTITLE6=Who Do Me
TTITLE7=Hooks And Wheels
TTITLE8=You're The One
TTITLE9=Too Much Hooch
TTITLE10=Tell Me Where She Went
TTITLE11=Mr. Moonlight
TTITLE12=I Need You Here With Me (Bonus Track)
TTITLE13=I Think You Ought To Tell Him (Bonus Track)
TTITLE14=Sit Down And Talk About It (Bonus Track)
TTITLE15=All Night Long (Bonus Track)
EXTD=YEAR: 1998
EXTT0=
EXTT1=
EXTT2=
EXTT3=
EXTT4=
EXTT5=
EXTT6=
EXTT7=
EXTT8=
EXTT9=
EXTT10=
EXTT11=
EXTT12=
EXTT13=
EXTT14=
EXTT15=
PLAYORDER=
